<svg width="125" height="22" viewBox="0 0 125 22" fill="none" xmlns="http://www.w3.org/2000/svg">
  <path d="M1.97101 20.9029C1.69372 20.9029 1.41643 20.823 1.17875 20.6633C0.465711 20.224 0.267645 19.3056 0.703391 18.5869L9.29946 4.73098C10.6067 2.6546 12.825 1.41675 15.2414 1.41675C17.6579 1.41675 19.9158 2.6546 21.1834 4.73098L28.2346 16.1112C28.9476 17.2292 30.136 17.9081 31.4433 17.9081C33.5428 17.9081 35.2065 16.1911 35.2065 14.1147V2.93411C35.2065 2.09557 35.8799 1.41675 36.7118 1.41675C37.5437 1.41675 38.2171 2.09557 38.2171 2.93411V14.1147C38.2171 17.8681 35.2065 20.9029 31.4829 20.9029C29.1457 20.9029 27.0066 19.7049 25.7389 17.7084L18.7274 6.32821C17.9748 5.13029 16.7071 4.41154 15.2811 4.41154C13.855 4.41154 12.5874 5.13029 11.8347 6.32821L3.23864 20.1841C2.96134 20.6633 2.48599 20.9029 1.97101 20.9029Z" fill="white"/>
  <path d="M58.7767 20.9028C56.3603 20.9028 54.1419 19.665 52.8347 17.5886L43.7632 3.81254C43.3275 3.13373 43.486 2.17539 44.1594 1.73616C44.8328 1.29692 45.7835 1.45664 46.2193 2.13546L55.3303 15.9115C55.3303 15.9115 55.3303 15.9514 55.3699 15.9514C56.1226 17.1494 57.3902 17.8681 58.8163 17.8681C60.2423 17.8681 61.51 17.1494 62.2626 15.9514L70.8587 2.09553C71.2944 1.37678 72.2055 1.17713 72.9186 1.61636C73.6316 2.0556 73.8297 2.974 73.3939 3.69275L64.7979 17.5487C63.4114 19.665 61.1931 20.9028 58.7767 20.9028Z" fill="white"/>
  <path d="M15.2415 15.3525C16.3792 15.3525 17.3014 14.4229 17.3014 13.2761C17.3014 12.1293 16.3792 11.1997 15.2415 11.1997C14.1039 11.1997 13.1816 12.1293 13.1816 13.2761C13.1816 14.4229 14.1039 15.3525 15.2415 15.3525Z" fill="#F8E2BF"/>
  <path d="M99.3403 20.9029H84.4457C80.5636 20.9029 77.3945 17.7084 77.3945 13.7952V8.52439C77.3945 4.61119 80.5636 1.41675 84.4457 1.41675H99.3403C100.172 1.41675 100.846 2.09557 100.846 2.93411C100.846 3.77265 100.172 4.45147 99.3403 4.45147H84.4457C82.1877 4.45147 80.3655 6.28828 80.3655 8.56432V13.8352C80.3655 16.1112 82.1877 17.948 84.4457 17.948H99.3403C100.172 17.948 100.846 18.6268 100.846 19.4654C100.846 20.3039 100.172 20.9029 99.3403 20.9029Z" fill="white"/>
  <path d="M93.2004 12.637H85.0004C84.1685 12.637 83.4951 11.9582 83.4951 11.1197C83.4951 10.2811 84.1685 9.60229 85.0004 9.60229H93.2004C94.0322 9.60229 94.7057 10.2811 94.7057 11.1197C94.7057 11.9582 94.0322 12.637 93.2004 12.637Z" fill="white"/>
  <path d="M123.307 20.9028H114.077C110.432 20.9028 107.501 17.908 107.501 14.2743V2.89407C107.501 2.05553 108.174 1.37671 109.006 1.37671C109.838 1.37671 110.512 2.05553 110.512 2.89407V14.2743C110.512 16.2708 112.136 17.908 114.116 17.908H123.346C124.178 17.908 124.852 18.5868 124.852 19.4253C124.852 20.2639 124.139 20.9028 123.307 20.9028Z" fill="white"/>
</svg>
